<?xml version="1.0" encoding="UTF-8"?>
<svg id="Layer_1" data-name="Layer 1" xmlns="http://www.w3.org/2000/svg" viewBox="0 0 160 160">
  <defs>
    <style>
      .cls-1 {
        fill: #333;
      }
    </style>
  </defs>
  <path class="cls-1" d="M13.38,137.24c-1.25,0-2.36-.78-2.77-1.93-2.25-6.46-5.58-11.7-9.62-15.15-.63-.54-.99-1.32-.99-2.14s.36-1.6.99-2.14c4.04-3.46,7.36-8.7,9.62-15.16.4-1.15,1.52-1.93,2.77-1.93h0c1.25,0,2.36.78,2.77,1.93,2.25,6.45,5.58,11.69,9.62,15.16.63.54.99,1.32.99,2.14s-.36,1.6-.99,2.14c-4.04,3.46-7.36,8.7-9.62,15.15-.4,1.15-1.52,1.93-2.77,1.93ZM7.1,118.02c2.38,2.5,4.5,5.53,6.28,8.98,1.78-3.45,3.89-6.48,6.28-8.98-2.38-2.51-4.5-5.53-6.28-8.98-1.78,3.45-3.89,6.48-6.28,8.98Z"/>
  <path class="cls-1" d="M124.29,38.44c-1.25,0-2.36-.78-2.77-1.93-2.25-6.46-5.58-11.7-9.62-15.16-.63-.54-.99-1.32-.99-2.14s.36-1.6.99-2.14c4.04-3.46,7.36-8.7,9.62-15.15.4-1.15,1.52-1.93,2.77-1.93s2.36.78,2.77,1.93c2.25,6.46,5.58,11.7,9.62,15.16.63.54.99,1.32.99,2.14s-.36,1.6-.99,2.14c-4.04,3.46-7.36,8.7-9.62,15.16-.4,1.15-1.52,1.93-2.77,1.93ZM118.02,19.22c2.38,2.51,4.5,5.53,6.28,8.98,1.78-3.45,3.89-6.48,6.28-8.98-2.38-2.5-4.5-5.53-6.28-8.98-1.78,3.45-3.89,6.48-6.28,8.98Z"/>
  <path class="cls-1" d="M142.55,160c-1.25,0-2.36-.78-2.77-1.93-3.2-9.15-7.93-16.6-13.69-21.54-.63-.54-.99-1.32-.99-2.14s.36-1.6.99-2.14c5.76-4.93,10.49-12.38,13.69-21.54.4-1.15,1.52-1.93,2.77-1.93s2.36.78,2.77,1.93c3.2,9.15,7.93,16.6,13.69,21.54.63.54.99,1.32.99,2.14s-.36,1.6-.99,2.14c-5.76,4.93-10.49,12.38-13.69,21.54-.4,1.15-1.52,1.93-2.77,1.93ZM132.26,134.4c4.02,4.02,7.5,9.11,10.29,15.05,2.79-5.93,6.28-11.03,10.29-15.05-4.02-4.02-7.5-9.11-10.29-15.05-2.79,5.93-6.28,11.03-10.29,15.05Z"/>
  <g>
    <path class="cls-1" d="M82.09,156.82c-23.18,0-44.69-10.19-59.01-27.96l4.6-3.51c13.21,16.38,33.04,25.78,54.41,25.78,14.84,0,28.98-4.51,40.9-13.04l3.47,4.58c-12.93,9.26-28.27,14.15-44.37,14.15ZM67.31,138.1c-.54,0-1.08-.07-1.62-.23-14.67-4.21-27.26-14.16-34.53-27.3h0c-.87-1.56-.91-3.46-.12-5.07.79-1.61,2.32-2.77,4.11-3.1,5.9-1.1,12-.06,17.17,2.92,8.33,4.83,18.67,13.31,20.69,26.35.29,1.89-.43,3.78-1.92,5.05-1.07.91-2.41,1.38-3.77,1.38ZM36.35,107.97c6.53,11.72,17.75,20.61,30.84,24.4-1.73-10.76-10.66-17.99-17.87-22.16-3.9-2.25-8.51-3.04-12.97-2.24ZM96.9,138.1c-1.36,0-2.7-.48-3.77-1.38-1.5-1.27-2.21-3.15-1.92-5.05,2.02-13.05,12.37-21.53,20.7-26.35,5.14-2.98,11.23-4.02,17.13-2.93,1.79.33,3.33,1.49,4.12,3.1.79,1.61.74,3.51-.12,5.08-7.27,13.13-19.85,23.08-34.51,27.31h0c-.54.15-1.08.23-1.62.23ZM124.7,107.61c-3.42,0-6.83.87-9.81,2.6-7.21,4.17-16.15,11.39-17.88,22.16,13.11-3.82,24.36-12.74,30.87-24.51-1.05-.17-2.12-.25-3.18-.25ZM152.32,109.42l-5.47-1.99c2.89-7.53,4.36-15.46,4.36-23.57,0-17.1-6.6-33.41-18.59-45.9l4.27-3.88c13,13.55,20.17,31.23,20.17,49.79,0,8.8-1.59,17.4-4.73,25.57ZM82.09,104.11c-6.54,0-11.87-5.18-11.87-11.54s5.32-11.55,11.87-11.55,11.85,5.18,11.85,11.55-5.32,11.54-11.85,11.54ZM82.09,86.71c-3.32,0-6.02,2.63-6.02,5.86s2.7,5.85,6.02,5.85,6.01-2.62,6.01-5.85-2.69-5.86-6.01-5.86ZM8.29,96.73c-.77-4.22-1.17-8.56-1.17-12.88C7.12,43.62,40.76,10.89,82.09,10.89c8.48,0,16.8,1.37,24.73,4.07l-1.93,5.37c-7.31-2.49-14.98-3.75-22.8-3.75-38.12,0-69.12,30.18-69.12,67.27,0,3.99.36,7.99,1.07,11.88l-5.75,1ZM122.04,84.71c-1.71,0-3.44-.17-5.15-.52-2.88-.59-6.24-2.18-10.12-4.02-7.15-3.38-16.04-7.59-26-7.59s-17.46,4.09-23.67,7.38c-3.64,1.93-6.79,3.6-9.81,4.22-7.19,1.48-14.62-.2-20.38-4.58l-1.05-.8c-.81-.62-1.23-1.62-1.09-2.62,3.87-27.73,28.51-48.63,57.32-48.63s53.44,20.91,57.3,48.63c.14,1-.27,1.99-1.09,2.62l-1.04.8c-4.4,3.35-9.76,5.11-15.24,5.11ZM80.76,66.9c11.3,0,21.27,4.72,28.55,8.16,3.54,1.67,6.59,3.12,8.77,3.57,5.37,1.1,10.91-.09,15.26-3.27-4.18-24.12-25.93-42.11-51.26-42.11s-47.1,17.99-51.28,42.11c4.35,3.18,9.9,4.37,15.26,3.27,2.18-.45,4.98-1.93,8.22-3.65,6.43-3.41,15.25-8.08,26.46-8.08Z"/>
    <path class="cls-1" d="M67.31,138.1c-.54,0-1.08-.07-1.62-.23h0c-14.67-4.21-27.26-14.16-34.53-27.3-.87-1.56-.91-3.46-.12-5.07.79-1.61,2.32-2.77,4.11-3.1,5.9-1.1,12-.06,17.17,2.92,8.33,4.83,18.67,13.31,20.69,26.35.29,1.89-.43,3.78-1.92,5.05-1.07.91-2.41,1.38-3.77,1.38ZM39.77,107.66c-1.18,0-2.36.11-3.53.33,6.59,11.67,17.86,20.6,30.99,24.39-1.71-10.73-10.68-17.99-17.91-22.17-2.91-1.68-6.21-2.54-9.56-2.54Z"/>
    <path class="cls-1" d="M82.09,104.11c-6.54,0-11.87-5.18-11.87-11.54s5.32-11.55,11.87-11.55,11.85,5.18,11.85,11.55-5.32,11.54-11.85,11.54ZM82.09,86.71c-3.32,0-6.02,2.63-6.02,5.86s2.7,5.85,6.02,5.85,6.01-2.62,6.01-5.85-2.69-5.86-6.01-5.86Z"/>
    <path class="cls-1" d="M96.9,138.1c-1.36,0-2.7-.48-3.77-1.38-1.5-1.27-2.21-3.15-1.92-5.05,2.02-13.05,12.37-21.53,20.7-26.35,5.14-2.98,11.23-4.02,17.13-2.93,1.79.33,3.33,1.49,4.12,3.1.79,1.61.74,3.51-.12,5.08h0c-7.27,13.13-19.85,23.08-34.51,27.31-.54.15-1.08.23-1.62.23ZM124.52,107.64c-3.36,0-6.69.87-9.63,2.57-7.21,4.17-16.15,11.39-17.88,22.16,13.09-3.81,24.32-12.71,30.84-24.44-1.1-.19-2.22-.29-3.33-.29ZM127.89,107.86h0Z"/>
    <path class="cls-1" d="M122.04,84.71c-1.71,0-3.44-.17-5.15-.52-2.88-.59-6.24-2.18-10.12-4.02-7.15-3.38-16.04-7.59-26-7.59s-17.46,4.09-23.67,7.38c-3.64,1.93-6.79,3.6-9.81,4.22-7.19,1.48-14.62-.2-20.38-4.58l-1.05-.8c-.81-.62-1.23-1.62-1.09-2.62,3.87-27.73,28.51-48.63,57.32-48.63s53.44,20.91,57.3,48.63c.14,1-.27,1.99-1.09,2.62l-1.04.8c-4.4,3.35-9.76,5.11-15.24,5.11ZM80.76,66.9c11.3,0,21.27,4.72,28.55,8.16,3.54,1.67,6.59,3.12,8.77,3.57,5.37,1.1,10.91-.09,15.26-3.27-4.18-24.12-25.93-42.11-51.26-42.11s-47.1,17.99-51.28,42.11c4.35,3.18,9.9,4.37,15.26,3.27,2.18-.45,4.98-1.93,8.22-3.65,6.43-3.41,15.25-8.08,26.46-8.08Z"/>
    <path class="cls-1" d="M67.31,138.1c-.54,0-1.08-.07-1.62-.23h0c-14.67-4.21-27.26-14.16-34.53-27.3-.87-1.56-.91-3.46-.12-5.07.79-1.61,2.32-2.77,4.11-3.1,5.9-1.1,12-.06,17.17,2.92,8.33,4.83,18.67,13.31,20.69,26.35.29,1.89-.43,3.78-1.92,5.05-1.07.91-2.41,1.38-3.77,1.38ZM39.77,107.66c-1.18,0-2.36.11-3.53.33,6.59,11.67,17.86,20.6,30.99,24.39-1.71-10.73-10.68-17.99-17.91-22.17-2.91-1.68-6.21-2.54-9.56-2.54Z"/>
    <path class="cls-1" d="M82.09,104.11c-6.54,0-11.87-5.18-11.87-11.54s5.32-11.55,11.87-11.55,11.85,5.18,11.85,11.55-5.32,11.54-11.85,11.54ZM82.09,86.71c-3.32,0-6.02,2.63-6.02,5.86s2.7,5.85,6.02,5.85,6.01-2.62,6.01-5.85-2.69-5.86-6.01-5.86Z"/>
    <path class="cls-1" d="M96.9,138.1c-1.36,0-2.7-.48-3.77-1.38-1.5-1.27-2.21-3.15-1.92-5.05,2.02-13.05,12.37-21.53,20.7-26.35,5.14-2.98,11.23-4.02,17.13-2.93,1.79.33,3.33,1.49,4.12,3.1.79,1.61.74,3.51-.12,5.08h0c-7.27,13.13-19.85,23.08-34.51,27.31-.54.15-1.08.23-1.62.23ZM124.52,107.64c-3.36,0-6.69.87-9.63,2.57-7.21,4.17-16.15,11.39-17.88,22.16,13.09-3.81,24.32-12.71,30.84-24.44-1.1-.19-2.22-.29-3.33-.29ZM127.89,107.86h0Z"/>
    <path class="cls-1" d="M122.04,84.71c-1.71,0-3.44-.17-5.15-.52-2.88-.59-6.24-2.18-10.12-4.02-7.15-3.38-16.04-7.59-26-7.59s-17.46,4.09-23.67,7.38c-3.64,1.93-6.79,3.6-9.81,4.22-7.19,1.48-14.62-.2-20.38-4.58l-1.05-.8c-.81-.62-1.23-1.62-1.09-2.62,3.87-27.73,28.51-48.63,57.32-48.63s53.44,20.91,57.3,48.63c.14,1-.27,1.99-1.09,2.62l-1.04.8c-4.4,3.35-9.76,5.11-15.24,5.11ZM80.76,66.9c11.3,0,21.27,4.72,28.55,8.16,3.54,1.67,6.59,3.12,8.77,3.57,5.37,1.1,10.91-.09,15.26-3.27-4.18-24.12-25.93-42.11-51.26-42.11s-47.1,17.99-51.28,42.11c4.35,3.18,9.9,4.37,15.26,3.27,2.18-.45,4.98-1.93,8.22-3.65,6.43-3.41,15.25-8.08,26.46-8.08Z"/>
    <polygon class="cls-1" points="132.06 109 129.96 108.15 132.03 106.14 132.06 103.31 132.06 106.11 134.1 104.13 132.06 106.12 132.06 109"/>
    <path class="cls-1" d="M82.09,104.11c-6.54,0-11.87-5.18-11.87-11.54s5.32-11.55,11.87-11.55,11.85,5.18,11.85,11.55-5.32,11.54-11.85,11.54ZM82.09,86.71c-3.32,0-6.02,2.63-6.02,5.86s2.7,5.85,6.02,5.85,6.01-2.62,6.01-5.85-2.69-5.86-6.01-5.86Z"/>
  </g>
</svg>