<?xml version="1.0" encoding="UTF-8"?>
<svg id="Layer_1" data-name="Layer 1" xmlns="http://www.w3.org/2000/svg" viewBox="0 0 160 160">
  <defs>
    <style>
      .cls-1 {
        fill: #333;
      }
    </style>
  </defs>
  <g>
    <path class="cls-1" d="M44.83,80.9c-.88,0-1.77-.17-2.61-.51-1.74-.71-3.11-2.06-3.85-3.81l-2.61-6.16c-1.53-3.61.12-7.81,3.69-9.36l44.79-19.48,8.16,19.25-44.79,19.48c-.89.39-1.83.58-2.77.58ZM81.31,48.98l-39.68,17.26c-.75.33-1.1,1.21-.77,1.97l2.61,6.16c.32.76,1.19,1.11,1.94.78l39.68-17.26-3.78-8.91Z"/>
    <path class="cls-1" d="M89.86,64.82c-.35,0-.7-.07-1.03-.2-.68-.28-1.23-.82-1.52-1.5l-8.21-19.37c-.6-1.43.05-3.08,1.46-3.7l11.22-4.88c.34-.15.71-.23,1.08-.23l10.25-.06h.02c1.11,0,2.11.67,2.55,1.7l5.06,11.94c.44,1.04.22,2.24-.55,3.06l-7.1,7.49c-.26.27-.57.49-.91.64l-11.22,4.88c-.35.15-.72.23-1.1.23ZM85.3,44.11l6.02,14.2,8.15-3.54,5.44-5.73-3.61-8.51-7.85.05-8.15,3.54Z"/>
    <path class="cls-1" d="M114.38,42.38c-.18,0-.38-.01-.54-.06-.18-.03-.36-.08-.53-.15-.17-.07-.33-.15-.47-.27-.15-.1-.31-.21-.43-.34-.51-.54-.81-1.25-.81-2s.29-1.46.81-1.98c.12-.13.28-.25.43-.35.14-.1.31-.18.47-.25.17-.07.35-.13.53-.17.35-.07.72-.07,1.08,0,.17.04.35.1.51.17.17.07.33.15.49.25.15.1.29.22.42.35.51.52.82,1.25.82,1.98s-.31,1.46-.82,2c-.13.13-.26.24-.42.34-.15.11-.32.2-.49.27-.17.07-.35.13-.51.15-.18.04-.36.06-.54.06Z"/>
    <path class="cls-1" d="M121.33,30.58c-.19,0-.38-.03-.56-.06-.17-.04-.35-.1-.51-.17-.17-.07-.33-.15-.49-.25-.14-.1-.29-.22-.42-.35-.12-.13-.25-.28-.35-.42-.1-.15-.18-.32-.25-.49-.07-.17-.13-.35-.17-.52-.03-.18-.04-.37-.04-.55s.01-.38.04-.56c.04-.17.1-.35.17-.52.07-.17.15-.34.25-.48.1-.15.22-.31.35-.44.13-.13.28-.25.42-.35.15-.1.32-.18.49-.25.17-.07.35-.13.51-.17.36-.07.74-.07,1.1,0,.17.04.35.1.51.17.17.07.33.15.49.25.14.1.29.23.42.35.12.13.25.28.35.44.1.14.18.31.25.48.07.17.12.35.17.52.03.18.06.38.06.56,0,.73-.31,1.46-.82,1.98-.12.13-.28.25-.42.35-.15.1-.32.18-.49.25s-.35.13-.51.17c-.18.03-.36.06-.54.06Z"/>
    <path class="cls-1" d="M127.61,45.4c-.18,0-.36-.01-.54-.06-.17-.03-.35-.08-.51-.16-.17-.07-.33-.15-.49-.25-.15-.11-.29-.23-.42-.35-.13-.13-.25-.28-.35-.44-.1-.14-.18-.31-.25-.48-.07-.17-.12-.35-.17-.54-.03-.17-.06-.37-.06-.55,0-.73.31-1.46.82-1.98.12-.13.26-.25.42-.35.15-.1.32-.18.49-.25.17-.07.35-.13.51-.17.9-.18,1.87.11,2.51.77.51.52.81,1.25.81,1.98,0,.18-.01.38-.06.55-.03.18-.08.37-.15.54-.07.17-.15.34-.25.48-.11.15-.22.31-.35.44-.51.52-1.24.82-1.97.82Z"/>
    <path class="cls-1" d="M130.12,17.96c-.74,0-1.46-.3-1.97-.82-.12-.14-.24-.28-.35-.44-.1-.15-.18-.31-.25-.48-.07-.17-.12-.35-.15-.53-.04-.18-.06-.37-.06-.55,0-.75.29-1.46.81-1.98.64-.66,1.61-.96,2.51-.77.17.04.35.08.51.15.17.07.33.17.49.27.15.1.29.21.42.35.51.52.82,1.24.82,1.98,0,.18-.03.37-.06.55-.04.18-.1.37-.17.53-.07.17-.15.32-.25.48-.1.16-.22.3-.35.44-.12.13-.26.24-.42.34-.15.11-.32.2-.49.27-.17.07-.35.13-.51.15-.18.04-.36.06-.54.06Z"/>
    <path class="cls-1" d="M136.42,32.81c-.18,0-.36-.01-.54-.06-.18-.03-.35-.08-.53-.15-.17-.07-.32-.16-.47-.27-.15-.1-.29-.21-.42-.35-.53-.52-.82-1.24-.82-1.98,0-.18.01-.37.06-.55.04-.18.08-.35.15-.52.07-.17.17-.34.26-.49.1-.16.21-.3.35-.42.12-.14.26-.25.42-.35.15-.1.31-.2.47-.27.18-.07.35-.11.53-.15.36-.07.72-.07,1.08,0,.18.04.35.08.53.15.17.07.32.17.47.27.15.1.29.21.43.35.12.13.24.27.33.42.11.15.19.32.26.49.07.17.13.34.15.52.04.18.06.37.06.55,0,.75-.29,1.46-.81,1.98-.14.14-.28.25-.43.35-.15.11-.31.2-.47.27-.18.07-.35.13-.53.15-.18.04-.36.06-.54.06Z"/>
    <path class="cls-1" d="M142.72,47.67c-.19,0-.37-.01-.56-.06-.17-.03-.35-.08-.51-.15-.17-.07-.33-.16-.49-.27-.15-.1-.29-.21-.42-.35-.51-.52-.82-1.24-.82-1.98s.31-1.46.82-1.98c.13-.14.26-.25.42-.35.15-.1.32-.2.49-.27.17-.07.35-.13.51-.15.36-.07.74-.07,1.1,0,.17.03.35.08.51.15s.33.17.47.27c.15.1.31.21.43.35.51.52.81,1.24.81,1.98s-.29,1.46-.81,1.98c-.12.14-.28.25-.43.35-.14.11-.31.2-.47.27-.17.07-.35.13-.51.15-.18.04-.36.06-.54.06Z"/>
    <path class="cls-1" d="M157.22,50.16c-.72,0-1.44-.31-1.96-.83-.51-.52-.82-1.25-.82-1.98s.31-1.46.82-2c1.03-1.04,2.89-1.04,3.93,0,.51.53.81,1.25.81,2s-.29,1.46-.81,1.98c-.53.52-1.24.83-1.97.83Z"/>
    <path class="cls-1" d="M138.32,5.59c-.72,0-1.44-.3-1.96-.83-.51-.52-.81-1.24-.81-1.98s.29-1.46.81-1.98c1.04-1.06,2.9-1.06,3.93,0,.51.52.8,1.24.8,1.98s-.29,1.46-.8,1.98c-.51.53-1.24.83-1.97.83Z"/>
    <path class="cls-1" d="M144.62,20.45c-.74,0-1.44-.3-1.96-.83-.14-.13-.25-.27-.35-.42-.11-.15-.19-.31-.26-.49-.07-.17-.13-.34-.15-.52-.04-.18-.06-.37-.06-.55,0-.75.29-1.46.82-1.98,1.03-1.06,2.89-1.06,3.92,0,.53.52.82,1.24.82,1.98,0,.18-.01.37-.06.55-.03.18-.08.35-.15.52-.07.18-.15.34-.26.49-.1.16-.21.3-.35.42-.51.53-1.22.83-1.96.83Z"/>
    <path class="cls-1" d="M150.92,35.3c-.18,0-.36-.01-.54-.06-.18-.03-.35-.08-.51-.15-.17-.07-.33-.17-.49-.27-.15-.1-.29-.21-.42-.35-.51-.52-.82-1.24-.82-1.98s.31-1.46.82-2c.12-.13.26-.24.42-.34.15-.11.32-.2.49-.27.17-.07.35-.13.51-.15.36-.07.74-.07,1.08,0,.18.03.36.08.53.15.17.07.32.15.47.27.15.1.31.21.43.34.51.53.81,1.25.81,2s-.29,1.46-.81,1.98c-.12.14-.28.25-.43.35-.15.1-.31.2-.47.27-.17.07-.35.13-.53.15-.17.04-.36.06-.54.06Z"/>
  </g>
  <g>
    <path class="cls-1" d="M120.4,160l-3.66-4.23c15-13.3,20.46-29.24,13.91-40.59-7.59-13.17-28.36-15.25-55.56-5.58-44.07,15.67-57.5,11.3-61.59,7.3-2.63-2.57-3.08-6.75-1.33-12.43,6.41-20.81,29.12-29.67,29.34-29.75l1.93,5.28c-.2.08-20.42,8.14-25.97,26.15-1.03,3.33-1.07,5.78-.12,6.71.87.85,9.81,7.82,55.89-8.56,29.91-10.63,53.16-7.62,62.2,8.05,7.95,13.79,2.04,32.5-15.05,47.66Z"/>
    <path class="cls-1" d="M113.08,151.53l-3.66-4.23c10.31-9.14,15.2-20.27,11.64-26.45-2.78-4.83-14.82-10.4-42.28-.63-38.96,13.85-62.16,15.37-72.99,4.78-4.06-3.97-8.08-11.33-4.22-23.88,8.07-26.18,34.35-35.9,35.47-36.3l1.86,5.3c-1.01.36-24.77,9.15-32.02,32.67-2.39,7.77-1.44,14.05,2.77,18.16,8.9,8.7,31.54,6.67,67.29-6.04,28.84-10.26,44.18-5.12,48.92,3.11,5.06,8.78-.07,22.25-12.77,33.52Z"/>
  </g>
</svg>