<?xml version="1.0" encoding="UTF-8"?>
<svg id="Layer_1" data-name="Layer 1" xmlns="http://www.w3.org/2000/svg" viewBox="0 0 160 160">
  <defs>
    <style>
      .cls-1 {
        fill: #333;
      }
    </style>
  </defs>
  <g>
    <path class="cls-1" d="M131.26,144.65H29.96c-11.41,0-20.69-9.17-20.69-20.45v-12.55c0-4.99,1.84-9.8,5.18-13.54l1.35-1.51H2.87c-1.59,0-2.87-1.27-2.87-2.84,0-7.54,6.21-13.68,13.84-13.68h16.54v5.67H13.84c-3.46,0-6.41,2.15-7.58,5.17h15.9c1.13,0,2.15.65,2.62,1.67.46,1.02.28,2.21-.47,3.04l-5.56,6.22c-2.42,2.7-3.75,6.18-3.75,9.78v12.55c0,8.15,6.71,14.78,14.95,14.78h101.3c8.24,0,14.95-6.63,14.95-14.78v-12.55c0-3.61-1.33-7.08-3.75-9.78l-5.56-6.22c-.75-.84-.93-2.03-.47-3.04.46-1.02,1.49-1.67,2.62-1.67h15.9c-1.16-3.02-4.12-5.17-7.58-5.17h-16.53v-5.67h16.53c7.63,0,13.84,6.14,13.84,13.68,0,1.57-1.29,2.84-2.87,2.84h-12.93l1.35,1.51c3.34,3.74,5.18,8.55,5.18,13.54v12.55c0,11.28-9.28,20.45-20.69,20.45Z"/>
    <path class="cls-1" d="M117.17,99.69l-73.35-.04c-16.15-2.69-16.96-10.62-17-11.51,0-8.57,6.27-20.46,11.53-28.95,2.61-4.2,7.13-6.71,12.1-6.71h35.98v5.67h-35.98c-2.96,0-5.66,1.5-7.21,4-6.71,10.82-10.59,20.16-10.69,25.66.15.56,1.59,4.42,11.98,6.2h72.15c10.48-1.8,11.86-5.71,12-6.22-.05-5.37-3.94-14.75-10.7-25.65-1.55-2.51-4.25-4-7.21-4v-5.67c4.97,0,9.49,2.51,12.1,6.71,5.27,8.49,11.55,20.38,11.55,28.83-.04,1.02-.87,8.94-17.01,11.63l-.24.04ZM128.68,87.86v.03-.03Z"/>
    <path class="cls-1" d="M39.76,160h-3.02c-7.75,0-14.06-6.23-14.06-13.9v-4.84h5.74v4.84c0,4.54,3.73,8.22,8.32,8.22h3.02c4.59,0,8.32-3.69,8.32-8.22v-4.29h5.74v4.29c0,7.66-6.31,13.9-14.06,13.9Z"/>
    <path class="cls-1" d="M124.49,160h-3.02c-7.75,0-14.06-6.23-14.06-13.9v-4.29h5.74v4.29c0,4.54,3.73,8.22,8.32,8.22h3.02c4.59,0,8.32-3.69,8.32-8.22v-4.84h5.74v4.84c0,7.66-6.31,13.9-14.06,13.9Z"/>
  </g>
  <path class="cls-1" d="M98.55,81.95c-1.23,0-2.32-.77-2.72-1.92-2.21-6.44-5.48-11.66-9.44-15.11-.62-.54-.97-1.31-.97-2.13s.35-1.59.97-2.13c3.96-3.45,7.23-8.68,9.44-15.11.4-1.15,1.49-1.92,2.72-1.92s2.32.77,2.72,1.92c2.21,6.44,5.48,11.66,9.44,15.11.62.54.97,1.31.97,2.13s-.35,1.59-.97,2.13c-3.96,3.45-7.23,8.68-9.44,15.11-.4,1.15-1.49,1.92-2.72,1.92ZM92.39,62.78c2.34,2.5,4.42,5.52,6.16,8.96,1.75-3.44,3.82-6.46,6.16-8.96-2.34-2.5-4.41-5.52-6.16-8.96-1.75,3.44-3.82,6.46-6.16,8.96Z"/>
  <path class="cls-1" d="M136.29,49.29c-1.23,0-2.32-.77-2.72-1.92-2.21-6.44-5.48-11.66-9.44-15.11-.62-.54-.97-1.31-.97-2.13s.35-1.59.97-2.13c3.96-3.45,7.23-8.68,9.44-15.11.4-1.15,1.49-1.92,2.72-1.92s2.32.77,2.72,1.92c2.21,6.44,5.48,11.66,9.44,15.11.62.54.97,1.31.97,2.13s-.35,1.59-.97,2.13c-3.96,3.45-7.23,8.67-9.44,15.11-.4,1.15-1.49,1.92-2.72,1.92ZM130.13,30.12c2.34,2.5,4.41,5.52,6.16,8.96,1.75-3.44,3.82-6.46,6.16-8.96-2.34-2.5-4.42-5.52-6.16-8.96-1.75,3.44-3.82,6.46-6.16,8.96Z"/>
  <path class="cls-1" d="M78.02,49.29c-1.23,0-2.32-.77-2.72-1.92-2.21-6.44-5.48-11.66-9.44-15.11-.62-.54-.97-1.31-.97-2.13s.35-1.59.97-2.13c3.96-3.45,7.23-8.68,9.44-15.11.4-1.15,1.49-1.92,2.72-1.92s2.32.77,2.72,1.92c2.21,6.44,5.48,11.66,9.44,15.11.62.54.97,1.31.97,2.13s-.35,1.59-.97,2.13c-3.96,3.45-7.23,8.67-9.44,15.11-.4,1.15-1.49,1.92-2.72,1.92ZM71.86,30.12c2.34,2.5,4.42,5.52,6.16,8.96,1.75-3.44,3.82-6.46,6.16-8.96-2.34-2.5-4.42-5.52-6.16-8.96-1.75,3.44-3.82,6.46-6.16,8.96Z"/>
</svg>