<?xml version="1.0" encoding="UTF-8"?>
<svg id="Layer_1" data-name="Layer 1" xmlns="http://www.w3.org/2000/svg" viewBox="0 0 160 160">
  <defs>
    <style>
      .cls-1 {
        fill: #333;
      }
    </style>
  </defs>
  <g>
    <path class="cls-1" d="M64.57,145.6c-3.09,0-5.78-.54-8.02-1.27-10.84-3.53-17.82-13.45-20.73-21.55-1.76-4.9-2.59-8.63-3.33-11.93-1.45-6.53-2.42-10.85-10.24-19.43-6.76-7.42-10.12-16.52-9.45-25.62.67-9.11,5.43-17.57,13.39-23.84,7.96-6.26,16.75-8.45,24.76-6.17,8,2.28,14.67,8.77,18.8,18.26,4.77,10.98,8.14,13.4,13.25,17.06,2.57,1.85,5.49,3.94,9.1,7.39,5.97,5.7,12.15,16.24,11.62,28.72-.33,7.71-3.48,19.06-16.61,29.4-8.73,6.87-16.41,8.98-22.54,8.98ZM44.52,41.11c-4.97,0-10.1,2-15.08,5.92-6.68,5.26-10.5,11.92-11.04,19.28-.54,7.25,2.24,14.6,7.8,20.71,8.94,9.81,10.17,15.34,11.74,22.35.69,3.1,1.47,6.61,3.09,11.12,2.43,6.75,8.2,14.99,17.1,17.89,8,2.61,16.65.32,25.72-6.82h0c9.07-7.13,13.86-15.42,14.25-24.63.44-10.25-4.72-18.98-9.69-23.73-3.32-3.17-6.06-5.14-8.49-6.87-5.48-3.93-9.81-7.03-15.26-19.58-3.39-7.82-8.77-13.12-15.14-14.94-1.65-.47-3.32-.7-5.02-.7Z"/>
    <path class="cls-1" d="M85.48,137.19c-.88,0-1.74-.45-2.29-1.31-.9-1.4-.6-3.33.66-4.33l18.58-14.62c9.07-7.13,13.86-15.42,14.25-24.63.44-10.25-4.72-18.98-9.69-23.73l-.27-.26c-1.17-1.12-1.3-3.08-.29-4.38,1.01-1.3,2.79-1.44,3.96-.32l.28.26c5.97,5.7,12.15,16.24,11.62,28.72-.33,7.71-3.48,19.06-16.61,29.39l-18.58,14.62c-.49.39-1.06.57-1.62.57Z"/>
    <path class="cls-1" d="M27.82,47.6c-.88,0-1.74-.45-2.29-1.31-.9-1.4-.6-3.33.66-4.33l18.58-14.62c14.42-11.34,30.64-8.9,40.35,6.09.9,1.39.61,3.33-.65,4.33-1.26,1-3.02.68-3.92-.72-7.89-12.16-20.65-13.99-32.53-4.64l-18.58,14.62c-.49.39-1.06.57-1.63.57Z"/>
    <path class="cls-1" d="M31.93,71.41c-.2,0-.38-.02-.56-.06-.17-.03-.35-.09-.52-.17-.17-.08-.32-.17-.48-.3-.15-.11-.29-.23-.44-.39-.53-.57-.81-1.37-.81-2.19,0-.2.01-.4.06-.6.03-.2.08-.4.15-.59.07-.19.15-.36.25-.53.11-.17.22-.33.35-.47.66-.73,1.63-1.07,2.54-.85.17.03.35.09.52.17s.34.17.49.29c.15.11.29.23.42.39.13.14.25.3.35.47.1.17.18.34.25.53.07.19.13.39.17.59.03.2.06.4.06.6,0,.82-.3,1.61-.83,2.19-.53.59-1.24.92-1.98.92Z"/>
    <path class="cls-1" d="M53.62,66.79c-.36,0-.73-.08-1.07-.23-.34-.15-.65-.39-.91-.68-.53-.59-.83-1.37-.83-2.19s.31-1.61.83-2.2c.13-.14.27-.26.42-.39.15-.11.32-.2.49-.28.17-.08.34-.14.52-.17.37-.09.74-.09,1.1,0,.18.03.36.09.53.17.17.08.34.17.48.28.15.12.3.25.44.39.52.57.81,1.38.81,2.2s-.28,1.6-.81,2.19c-.14.15-.28.28-.44.39-.15.11-.31.22-.48.29-.17.08-.35.12-.52.17-.18.03-.36.06-.56.06Z"/>
    <path class="cls-1" d="M38.25,57.78c-.2,0-.38-.03-.56-.06-.18-.05-.35-.09-.52-.17-.17-.08-.34-.19-.48-.3-.15-.11-.29-.25-.44-.39-.27-.29-.46-.64-.6-1.01-.14-.37-.21-.78-.21-1.18,0-.82.29-1.63.81-2.2.13-.14.28-.26.44-.39.14-.11.31-.2.48-.28.17-.08.35-.14.52-.19.91-.2,1.9.14,2.54.85.13.14.25.31.35.47.1.17.18.36.25.54.07.19.13.39.17.59.03.19.06.4.06.6,0,.4-.07.81-.22,1.18-.14.37-.34.71-.6,1.01-.27.3-.58.51-.91.68-.34.15-.7.23-1.07.23Z"/>
    <path class="cls-1" d="M40.58,92.82c-.36,0-.73-.09-1.07-.25-.35-.15-.65-.37-.91-.67-.53-.59-.83-1.37-.83-2.19,0-.2.01-.42.06-.62.04-.19.08-.39.15-.57.07-.19.17-.37.27-.54.1-.15.21-.33.35-.47,1.04-1.15,2.92-1.15,3.97,0,.13.14.24.31.34.47.11.17.2.36.27.54.07.19.13.39.15.57.04.2.06.42.06.62,0,.82-.29,1.6-.81,2.19-.53.59-1.24.92-1.99.92Z"/>
    <path class="cls-1" d="M55.84,106.25c-.18,0-.36-.02-.55-.06-.18-.03-.35-.09-.52-.17-.17-.08-.34-.17-.49-.29-.14-.11-.29-.23-.42-.39-.13-.14-.25-.3-.35-.47-.1-.17-.2-.34-.27-.53-.07-.19-.11-.39-.15-.59-.03-.19-.06-.4-.06-.6s.03-.4.06-.61c.04-.2.1-.39.17-.59.07-.19.15-.36.25-.53.1-.17.22-.33.35-.47.13-.15.27-.28.42-.39.15-.11.32-.22.49-.3.17-.08.35-.14.52-.17.91-.2,1.88.12,2.54.85.13.14.24.29.35.47.1.17.18.34.25.53.07.2.13.39.17.59.03.2.04.4.04.61s-.01.42-.04.6c-.04.2-.1.4-.17.59-.07.19-.15.36-.25.53-.1.17-.22.33-.35.47-.27.29-.58.53-.91.68-.34.16-.7.23-1.08.23Z"/>
    <path class="cls-1" d="M49.55,123.93c-.74,0-1.46-.33-1.99-.92s-.81-1.37-.81-2.19c0-.2.01-.4.06-.6.03-.2.08-.4.15-.59.07-.19.15-.36.25-.53.11-.17.22-.34.35-.48.14-.14.28-.26.44-.39.14-.11.31-.2.48-.28.17-.08.35-.14.53-.17.35-.09.73-.09,1.1,0,.18.03.35.09.52.17.17.08.34.17.49.28.15.12.29.25.42.39.13.14.25.31.35.48.1.17.18.34.25.53.07.19.13.39.17.59.03.2.06.4.06.6,0,.82-.29,1.6-.83,2.19-.53.59-1.24.92-1.98.92Z"/>
    <path class="cls-1" d="M69.47,131.3c-.76,0-1.46-.33-1.99-.92-.27-.3-.46-.62-.6-1.01-.14-.37-.21-.78-.21-1.18,0-.2.01-.42.06-.6.03-.2.08-.4.15-.59.07-.19.15-.36.25-.53.11-.17.22-.34.35-.48.66-.71,1.63-1.04,2.54-.84.17.03.35.09.52.17.17.08.34.17.49.29.15.11.29.23.42.37.52.59.81,1.38.81,2.2,0,.4-.07.81-.21,1.18-.14.39-.34.71-.6,1.01-.53.59-1.24.92-1.98.92Z"/>
    <path class="cls-1" d="M86.45,113.32c-.38,0-.73-.08-1.08-.23-.34-.16-.63-.39-.9-.67-.27-.29-.48-.64-.62-1.01-.14-.37-.21-.78-.21-1.2,0-.2.01-.4.06-.6.04-.2.08-.39.15-.57.07-.19.17-.37.27-.54.1-.17.21-.33.35-.47,1.04-1.16,2.92-1.16,3.96,0,.14.14.25.3.35.47.1.17.2.36.27.54.07.19.11.37.15.57.04.2.06.4.06.6,0,.42-.07.82-.21,1.2-.14.37-.35.71-.62,1.01-.53.57-1.24.9-1.98.9Z"/>
    <path class="cls-1" d="M82.04,96.16c-.76,0-1.46-.33-1.99-.92s-.81-1.37-.81-2.19c0-.2.01-.42.06-.61.03-.2.08-.4.15-.59.07-.19.15-.37.25-.53.11-.17.22-.34.35-.48,1.04-1.15,2.93-1.15,3.97,0,.13.14.24.31.35.48.1.16.18.34.25.53.07.19.13.39.17.59.03.19.06.4.06.61,0,.82-.29,1.6-.83,2.19-.13.14-.28.28-.44.39-.14.11-.31.22-.48.29-.17.08-.34.12-.52.17-.18.03-.36.06-.55.06Z"/>
    <path class="cls-1" d="M65.77,83.32c-.74,0-1.46-.33-1.98-.92-.53-.57-.83-1.35-.83-2.19,0-.2.03-.4.06-.6.04-.2.1-.39.17-.59.07-.19.15-.36.25-.53.1-.17.22-.33.35-.47.13-.15.27-.28.42-.39.15-.11.32-.22.49-.29s.34-.12.52-.17c.36-.08.74-.08,1.09,0,.18.05.37.09.53.17.17.08.34.19.48.29.15.11.31.23.44.39.13.14.24.3.35.47.1.17.18.34.25.53.07.2.13.39.15.59.04.2.06.4.06.6,0,.84-.28,1.61-.81,2.19-.27.3-.58.53-.91.68-.34.15-.7.23-1.08.23Z"/>
  </g>
  <path class="cls-1" d="M16.64,56.72c-7.56,0-13.71-6.8-13.71-15.16,0-6,3.11-11.22,7.79-13.67-.79-2.02-1.2-4.21-1.2-6.42,0-8.97,6.6-16.26,14.71-16.26,4.09,0,7.96,1.91,10.72,5.14,2.17-1.62,4.74-2.5,7.39-2.5,7.32,0,13.27,6.58,13.27,14.67,0,1.56-.22,3.09-.66,4.56-.48,1.63-2.07,2.52-3.54,1.98-1.47-.53-2.28-2.29-1.8-3.92.25-.85.38-1.73.38-2.63,0-4.66-3.43-8.46-7.65-8.46-2.18,0-4.27,1.04-5.72,2.86-.6.75-1.48,1.13-2.38,1.03-.9-.1-1.7-.67-2.15-1.53-1.63-3.09-4.64-5.01-7.86-5.01-5.01,0-9.09,4.51-9.09,10.05,0,2.3.69,4.46,1.99,6.26.62.86.79,2.03.42,3.06-.36,1.03-1.19,1.77-2.18,1.94-3.95.69-6.82,4.4-6.82,8.82,0,4.93,3.63,8.95,8.09,8.95.85,0,1.68-.14,2.48-.42,1.48-.52,3.06.37,3.53,2.01s-.34,3.38-1.82,3.9c-1.35.48-2.76.72-4.19.72Z"/>
  <path class="cls-1" d="M101.96,78.28c-4.07,0-7.56-2.82-8.95-6.79-.71.16-1.43.24-2.16.24-6.03,0-10.93-5.42-10.93-12.09,0-2.69.8-5.25,2.23-7.32-2.47-2.77-3.91-6.54-3.91-10.51,0-8.27,6.08-14.99,13.56-14.99s13.56,6.73,13.56,14.99c0,.2,0,.39-.01.59,6.08.44,10.91,6.05,10.91,12.88,0,4.23-1.85,8.1-4.87,10.49.11.62.16,1.26.16,1.89,0,5.85-4.31,10.61-9.6,10.61ZM97.98,67.78c.05,2.38,1.82,4.29,3.98,4.29s3.98-1.98,3.98-4.4c0-.65-.15-1.3-.44-1.95-.35-.77-.39-1.66-.12-2.47.27-.81.83-1.45,1.55-1.78,2.26-1.05,3.72-3.48,3.72-6.18,0-3.7-2.72-6.7-6.06-6.7-.63,0-1.25.11-1.86.32-1.02.36-2.15.05-2.89-.81-.74-.86-.98-2.11-.6-3.23.34-1,.51-2.03.51-3.06,0-4.84-3.56-8.78-7.95-8.78s-7.95,3.94-7.95,8.78c0,3.12,1.53,6.04,3.99,7.61.85.54,1.38,1.53,1.4,2.61.03,1.08-.46,2.1-1.28,2.69-1.53,1.09-2.44,2.94-2.44,4.93,0,3.24,2.39,5.88,5.32,5.88,1.01,0,1.99-.32,2.85-.93.89-.63,2.03-.65,2.93-.06.91.59,1.44,1.7,1.38,2.86,0,.13-.02.26-.03.38Z"/>
  <path class="cls-1" d="M72.94,18.02c-1.14,0-2.22-.78-2.63-2.03-.54-1.61.21-3.39,1.66-3.99C92.59,3.58,123.73-4.78,154.9,3.25c1.51.39,2.45,2.06,2.1,3.73-.35,1.67-1.87,2.7-3.37,2.32-29.82-7.68-59.81.4-79.72,8.53-.32.13-.65.19-.97.19Z"/>
  <path class="cls-1" d="M126.22,104.12c-1.08,0-2.12-.7-2.57-1.87-.62-1.57.03-3.4,1.45-4.09,9.28-4.47,19.83-6.21,31.38-5.16,1.55.14,2.7,1.64,2.57,3.35-.13,1.71-1.49,2.99-3.03,2.84-10.61-.96-20.26.6-28.68,4.66-.36.18-.75.26-1.12.26Z"/>
  <path class="cls-1" d="M13.62,160c-7.51,0-13.62-6.75-13.62-15.04,0-5.93,3.12-11.07,7.65-13.52-1.33-2.12-2.09-4.67-2.09-7.35,0-7.1,5.22-12.88,11.64-12.88s11.65,5.78,11.65,12.88c0,.31-.01.62-.03.92,3.91,1.32,6.75,5.33,6.75,10.07,0,5.37-3.65,9.81-8.35,10.46-.27,8.03-6.27,14.47-13.61,14.47ZM17.2,117.41c-3.32,0-6.02,2.99-6.02,6.67,0,2.63,1.4,5.02,3.57,6.09,1.21.6,1.88,2.04,1.6,3.48-.27,1.43-1.42,2.46-2.74,2.46-4.41.01-7.99,3.98-7.99,8.85s3.59,8.83,8,8.83,8-3.96,8-8.83c0-.7-.07-1.38-.21-2.02-.24-1.08.06-2.23.79-2.99.73-.77,1.78-1.04,2.74-.72.35.12.72.18,1.1.18,2.16,0,3.92-1.94,3.92-4.33s-1.76-4.32-3.92-4.32c-.12,0-.23.01-.35.02-.94.07-1.92-.4-2.49-1.26-.57-.86-.74-1.97-.39-2.96.28-.8.43-1.64.43-2.48,0-3.68-2.71-6.67-6.04-6.67Z"/>
</svg>