<?xml version="1.0" encoding="UTF-8"?>
<svg id="Layer_1" data-name="Layer 1" xmlns="http://www.w3.org/2000/svg" viewBox="0 0 160 160">
  <defs>
    <style>
      .cls-1 {
        fill: #333;
      }
    </style>
  </defs>
  <path class="cls-1" d="M97.14,87.94c-1.16,0-2.2-.74-2.57-1.85-2.17-6.39-5.36-11.58-9.24-15-.59-.52-.92-1.26-.92-2.05s.34-1.53.92-2.05c3.88-3.42,7.07-8.61,9.24-15,.37-1.11,1.41-1.85,2.57-1.85s2.2.74,2.57,1.85c2.16,6.39,5.36,11.58,9.24,15,.59.52.92,1.26.92,2.05s-.34,1.53-.92,2.05c-3.88,3.43-7.08,8.61-9.24,15-.37,1.11-1.41,1.85-2.57,1.85ZM91.01,69.04c2.33,2.51,4.4,5.57,6.13,9.06,1.73-3.49,3.79-6.54,6.13-9.06-2.33-2.51-4.4-5.57-6.13-9.06-1.73,3.49-3.79,6.54-6.13,9.06Z"/>
  <path class="cls-1" d="M93.53,160h0c-1.16,0-2.2-.74-2.57-1.85-2.16-6.39-5.36-11.57-9.24-15-.59-.52-.92-1.26-.92-2.05s.34-1.53.92-2.05c3.88-3.43,7.08-8.61,9.24-15,.37-1.11,1.41-1.85,2.57-1.85s2.2.74,2.57,1.85c2.16,6.39,5.36,11.58,9.24,15,.59.52.92,1.26.92,2.05s-.34,1.53-.92,2.05c-3.88,3.43-7.08,8.61-9.24,15-.37,1.11-1.41,1.85-2.57,1.85ZM87.4,141.1c2.33,2.51,4.4,5.57,6.13,9.06,1.73-3.49,3.79-6.54,6.13-9.06-2.33-2.51-4.4-5.57-6.13-9.06-1.73,3.49-3.79,6.54-6.13,9.06Z"/>
  <path class="cls-1" d="M68.84,137.66c-1.16,0-2.2-.74-2.57-1.85-2.16-6.39-5.36-11.57-9.24-15-.59-.52-.92-1.26-.92-2.05s.34-1.53.92-2.05c3.88-3.43,7.08-8.61,9.24-15,.37-1.11,1.41-1.85,2.57-1.85h0c1.16,0,2.2.74,2.57,1.85,2.16,6.39,5.36,11.57,9.24,15,.59.52.92,1.26.92,2.05s-.34,1.53-.92,2.05c-3.88,3.43-7.08,8.61-9.24,15-.37,1.11-1.41,1.85-2.57,1.85ZM62.72,118.76c2.33,2.52,4.4,5.57,6.13,9.06,1.73-3.49,3.79-6.54,6.13-9.06-2.34-2.51-4.4-5.57-6.13-9.06-1.73,3.49-3.79,6.54-6.13,9.06Z"/>
  <g>
    <rect class="cls-1" x="35.68" y="54.11" width="5.44" height="42.38"/>
    <path class="cls-1" d="M89.16,150.62h-22.73c-14.25,0-26.54-9.69-29.89-23.57l5.28-1.28c2.75,11.42,12.87,19.4,24.6,19.4h22.73v5.45Z"/>
    <path class="cls-1" d="M99.21,149.59l-1.4-5.27c8.97-2.39,15.9-9.5,18.08-18.55l5.28,1.28c-2.65,10.99-11.07,19.63-21.97,22.53Z"/>
    <rect class="cls-1" x="116.61" y="54.11" width="5.44" height="42.38"/>
    <path class="cls-1" d="M41.14,24.34l-5.43-.26C36.34,10.58,47.4,0,60.89,0h35.95c13.48,0,24.54,10.57,25.18,24.06l-5.43.26c-.5-10.58-9.18-18.87-19.75-18.87h-35.95c-10.58,0-19.26,8.3-19.75,18.89Z"/>
    <path class="cls-1" d="M41.49,56.84h-6.18c-5.47,0-9.92-4.46-9.92-9.95v-15.48c0-5.49,4.45-9.95,9.92-9.95h6.18c5.47,0,9.92,4.46,9.92,9.95v15.48c0,5.49-4.45,9.95-9.92,9.95ZM35.31,26.92c-2.47,0-4.49,2.02-4.49,4.5v15.48c0,2.48,2.01,4.5,4.49,4.5h6.18c2.47,0,4.49-2.02,4.49-4.5v-15.48c0-2.48-2.01-4.5-4.49-4.5h-6.18Z"/>
    <path class="cls-1" d="M122.42,56.84h-6.18c-5.47,0-9.92-4.46-9.92-9.95v-15.48c0-5.49,4.45-9.95,9.92-9.95h6.18c5.47,0,9.92,4.46,9.92,9.95v15.48c0,5.49-4.45,9.95-9.92,9.95ZM116.23,26.92c-2.47,0-4.48,2.02-4.48,4.5v15.48c0,2.48,2.01,4.5,4.48,4.5h6.18c2.47,0,4.48-2.02,4.48-4.5v-15.48c0-2.48-2.01-4.5-4.48-4.5h-6.18Z"/>
    <path class="cls-1" d="M41.49,129.14h-6.18c-5.47,0-9.92-4.46-9.92-9.95v-15.48c0-5.49,4.45-9.95,9.92-9.95h6.18c5.47,0,9.92,4.46,9.92,9.95v15.48c0,5.49-4.45,9.95-9.92,9.95ZM35.31,99.22c-2.47,0-4.49,2.02-4.49,4.5v15.48c0,2.48,2.01,4.5,4.49,4.5h6.18c2.47,0,4.49-2.02,4.49-4.5v-15.48c0-2.48-2.01-4.5-4.49-4.5h-6.18Z"/>
    <path class="cls-1" d="M122.42,129.14h-6.18c-5.47,0-9.92-4.46-9.92-9.95v-15.48c0-5.49,4.45-9.95,9.92-9.95h6.18c5.47,0,9.92,4.46,9.92,9.95v15.48c0,5.49-4.45,9.95-9.92,9.95ZM116.23,99.22c-2.47,0-4.48,2.02-4.48,4.5v15.48c0,2.48,2.01,4.5,4.48,4.5h6.18c2.47,0,4.48-2.02,4.48-4.5v-15.48c0-2.48-2.01-4.5-4.48-4.5h-6.18Z"/>
  </g>
</svg>