<?xml version="1.0" encoding="UTF-8"?>
<svg id="Layer_1" data-name="Layer 1" xmlns="http://www.w3.org/2000/svg" viewBox="0 0 160 160">
  <defs>
    <style>
      .cls-1 {
        fill: #333;
      }
    </style>
  </defs>
  <g>
    <path class="cls-1" d="M66.5,160H22.83c-10.43,0-19.18-7.64-19.92-17.39L.14,105.97c-1.04-13.73,3.9-26.84,13.92-36.92,10.01-10.07,23.62-15.62,38.31-15.62h14.9c11.01,0,19.97,8.4,19.97,18.72v68.41h-5.77v-68.41c0-7.34-6.37-13.31-14.2-13.31h-14.9c-13.07,0-25.18,4.94-34.09,13.9-8.91,8.96-13.31,20.63-12.38,32.85l2.77,36.63c.52,6.93,6.75,12.37,14.16,12.37h43.66v5.41Z"/>
    <path class="cls-1" d="M66.5,160c-11.44,0-20.74-8.72-20.74-19.44s9.31-19.44,20.74-19.44,20.74,8.72,20.74,19.44-9.31,19.44-20.74,19.44ZM66.5,126.53c-8.26,0-14.97,6.29-14.97,14.03s6.72,14.03,14.97,14.03,14.97-6.29,14.97-14.03-6.72-14.03-14.97-14.03Z"/>
    <path class="cls-1" d="M4.54,116.92l-1.75-5.15c47.87-14.3,43.62-54.83,43.57-55.24l5.74-.6c.05.45,4.77,45.36-47.55,60.99Z"/>
  </g>
  <path class="cls-1" d="M153.71,127.84h-40.22c-3.47,0-6.29-2.64-6.29-5.9v-3.87c0-1.07.31-2.11.88-3.02l3.14-4.89c1.11-1.76,3.19-2.87,5.4-2.87h5.65c.67,0,1.22-.51,1.22-1.14v-62.49c0-12.84-10.82-23.66-24.12-24.12-6.89-.25-13.39,2.09-18.35,6.56-4.96,4.48-7.69,10.49-7.69,16.92v13.38h-5.77v-13.38c0-7.92,3.36-15.31,9.46-20.81,6.09-5.5,14.09-8.36,22.57-8.07,16.36.57,29.68,13.82,29.68,29.53v62.49c0,3.61-3.13,6.55-6.99,6.55h-5.65c-.19,0-.36.09-.45.23l-3.14,4.9c-.05.08-.06.18-.06.24v3.87c0,.26.24.49.52.49h40.22c.28,0,.52-.22.52-.49v-3.87c0-.06-.01-.16-.07-.25l-3.12-4.87c-.1-.16-.27-.24-.46-.24h-5.67c-3.85,0-6.99-2.94-6.99-6.55v-63.13c0-10.08-4.26-19.51-12.01-26.55-7.74-7.04-17.96-10.73-28.7-10.45-21.12.59-38.31,17.57-38.31,37.85v12.27h-5.77v-12.27C53.13,20.7,72.83,1.3,97.04.62c12.34-.36,24.02,3.91,32.89,11.97,8.87,8.07,13.76,18.88,13.76,30.44v63.13c0,.63.55,1.14,1.22,1.14h5.67c2.22,0,4.29,1.11,5.41,2.88l3.12,4.87c.58.92.89,1.96.89,3.03v3.87c0,3.25-2.82,5.9-6.29,5.9Z"/>
</svg>