<?xml version="1.0" encoding="UTF-8"?>
<svg id="Layer_1" data-name="Layer 1" xmlns="http://www.w3.org/2000/svg" viewBox="0 0 160 160">
  <defs>
    <style>
      .cls-1 {
        fill: #333;
      }
    </style>
  </defs>
  <path class="cls-1" d="M26.64,67.1c-8.85,0-16.04-7.24-16.04-16.14s7.2-16.14,16.04-16.14c1.74,0,3.47.29,5.12.85,2.53-4.26,7.13-6.96,12.21-6.96,5.37,0,10.18,3.05,12.6,7.64,4.05-2.12,8.99-2.49,13.33-.95,2.29-5.22,7.44-8.73,13.35-8.73,6.56,0,12.12,4.37,13.96,10.37,1.83-.74,3.8-1.14,5.8-1.14,6.94,0,13.07,4.7,14.91,11.42l-5.49,1.52c-1.16-4.25-5.03-7.21-9.41-7.21-2.26,0-4.46.79-6.2,2.24-.86.71-2.06.86-3.06.36-1-.49-1.63-1.53-1.6-2.65,0-.04.01-.21.01-.25,0-4.91-4-8.93-8.91-8.93-4.36,0-8.05,3.14-8.77,7.47-.16.94-.77,1.74-1.63,2.13-.86.4-1.86.33-2.67-.17-1.77-1.09-3.79-1.67-5.84-1.67-2.69,0-5.29.98-7.33,2.76-.77.67-1.83.88-2.79.55-.96-.33-1.67-1.15-1.87-2.15-.8-3.99-4.32-6.89-8.38-6.89-3.69,0-6.95,2.37-8.11,5.89-.27.82-.89,1.47-1.68,1.77-.8.31-1.69.24-2.43-.19-1.56-.89-3.33-1.37-5.11-1.37-5.71,0-10.35,4.67-10.35,10.41s4.64,10.41,10.35,10.41v5.73Z"/>
  <g>
    <path class="cls-1" d="M130.27,144.49H29.73c-11.32,0-20.53-9.27-20.53-20.65v-12.68c0-5.04,1.83-9.9,5.14-13.67l1.34-1.52H2.85c-1.57,0-2.85-1.28-2.85-2.87,0-7.62,6.16-13.82,13.74-13.82h16.41v5.73H13.74c-3.43,0-6.37,2.17-7.52,5.22h15.78c1.12,0,2.14.66,2.6,1.69.46,1.03.28,2.23-.46,3.08l-5.52,6.28c-2.4,2.73-3.72,6.24-3.72,9.88v12.68c0,8.23,6.66,14.92,14.84,14.92h100.54c8.18,0,14.84-6.7,14.84-14.92v-12.68c0-3.64-1.32-7.15-3.72-9.88l-5.52-6.28c-.74-.85-.92-2.05-.46-3.08.46-1.03,1.48-1.69,2.6-1.69h15.78c-1.15-3.05-4.09-5.22-7.52-5.22h-16.41v-5.73h16.41c7.57,0,13.74,6.2,13.74,13.82,0,1.58-1.28,2.87-2.85,2.87h-12.83l1.34,1.52c3.32,3.78,5.14,8.63,5.14,13.67v12.68c0,11.39-9.21,20.65-20.53,20.65Z"/>
    <path class="cls-1" d="M116.28,99.09h-35.1v-5.73h34.62c10.41-1.82,11.77-5.77,11.9-6.28-.05-5.42-3.91-14.9-10.62-25.9-1.54-2.53-4.22-4.04-7.15-4.04h-59.86c-2.94,0-5.61,1.51-7.15,4.04-6.66,10.93-10.51,20.36-10.61,25.92.14.5,1.26,3.59,8.63,5.55l-1.46,5.54c-12.19-3.25-12.83-10.01-12.86-10.76,0-8.65,6.22-20.67,11.44-29.24,2.59-4.24,7.08-6.78,12.01-6.78h59.86c4.93,0,9.42,2.53,12.01,6.77,5.23,8.57,11.46,20.59,11.46,29.12-.04,1.03-.86,9.03-16.88,11.75l-.24.04ZM127.7,87.14s0,.03,0,.03v-.03Z"/>
    <path class="cls-1" d="M39.46,160h-3c-7.69,0-13.96-6.3-13.96-14.04v-4.89h5.7v4.89c0,4.58,3.7,8.31,8.26,8.31h3c4.55,0,8.26-3.73,8.26-8.31v-4.34h5.7v4.34c0,7.74-6.26,14.04-13.95,14.04Z"/>
    <path class="cls-1" d="M123.54,160h-3c-7.69,0-13.95-6.3-13.95-14.04v-4.34h5.7v4.34c0,4.58,3.7,8.31,8.26,8.31h3c4.55,0,8.26-3.73,8.26-8.31v-4.89h5.7v4.89c0,7.74-6.26,14.04-13.96,14.04Z"/>
  </g>
  <path class="cls-1" d="M51.95,120.07c-.48,0-.96-.03-1.45-.08-5.92-.65-10.75-5.43-11.5-11.38-.57-4.52,1.15-8.93,4.61-11.82.61-.51.85-1.32.63-2.16-.61-2.36-.62-4.78-.03-7.19,1.35-5.53,6.01-9.87,11.58-10.8,4.27-.71,8.58.47,11.83,3.24,3.26,2.78,5.12,6.83,5.12,11.12,0,.55-.03,1.1-.09,1.64-.12,1.08.34,2.07,1.17,2.52,4.11,2.22,6.45,6.68,5.94,11.38-.55,5.11-4.61,9.35-9.67,10.07-2.18.31-4.37,0-6.34-.9-1.01-.46-2.12.1-2.76.72-2.44,2.35-5.68,3.63-9.04,3.63ZM58.27,82.16c-.51,0-1.03.04-1.55.13-3.36.56-6.16,3.18-6.98,6.52-.36,1.48-.36,2.96,0,4.39.77,3-.19,6.07-2.5,8.01-1.95,1.63-2.92,4.13-2.59,6.69.42,3.34,3.14,6.04,6.47,6.4,2.2.24,4.37-.49,5.94-2,2.54-2.44,6.09-3.14,9.05-1.79.98.45,2.08.6,3.19.44,2.51-.36,4.54-2.47,4.81-5.01h0c.25-2.36-.91-4.6-2.97-5.71-2.9-1.56-4.53-4.79-4.14-8.21.04-.33.06-.66.06-1,0-2.6-1.13-5.07-3.11-6.75-1.61-1.37-3.58-2.09-5.67-2.09Z"/>
  <path class="cls-1" d="M140.17,27.52c-7.66,0-13.89-6.27-13.89-13.97S132.52-.42,140.17-.42s13.89,6.27,13.89,13.97-6.23,13.97-13.89,13.97ZM140.17,5.31c-4.52,0-8.19,3.7-8.19,8.24s3.67,8.24,8.19,8.24,8.19-3.7,8.19-8.24-3.67-8.24-8.19-8.24Z"/>
  <path class="cls-1" d="M16.06,32.4c-5.87,0-10.64-4.8-10.64-10.7s4.77-10.7,10.64-10.7,10.64,4.8,10.64,10.7-4.77,10.7-10.64,10.7ZM16.06,16.72c-2.73,0-4.95,2.23-4.95,4.97s2.22,4.97,4.95,4.97,4.95-2.23,4.95-4.97-2.22-4.97-4.95-4.97Z"/>
  <path class="cls-1" d="M112.66,132.9c-2.14,0-4.18-.68-5.89-1.98-.64-.49-1.48-.55-2.14-.16-1.92,1.12-4.11,1.72-6.35,1.72-3.43,0-6.63-1.35-9.04-3.81-2.4-2.46-3.69-5.71-3.63-9.16.06-3.36,1.45-6.53,3.91-8.92,2.47-2.39,5.71-3.67,9.02-3.6,4.01.08,7.78,2.11,10.09,5.42.51.73,1.3,1.09,2.06.94,1.23-.25,2.49-.27,3.75-.04h0c3.89.71,7.03,3.79,7.82,7.67.6,2.96-.13,5.98-2.01,8.29-1.87,2.31-4.65,3.63-7.61,3.63ZM105.56,124.77c1.63,0,3.26.53,4.64,1.57,1.7,1.29,4.3.97,5.65-.7.8-.98,1.1-2.23.83-3.52-.32-1.57-1.66-2.88-3.25-3.17h0c-.54-.1-1.07-.1-1.58.01-2.97.61-6.06-.67-7.87-3.26-1.27-1.82-3.35-2.94-5.55-2.98-1.83-.04-3.58.67-4.95,2-1.37,1.32-2.14,3.06-2.17,4.89-.03,1.9.68,3.69,2,5.04,1.32,1.35,3.09,2.1,4.97,2.1,1.22,0,2.43-.33,3.48-.94,1.18-.69,2.49-1.03,3.8-1.03Z"/>
</svg>